<?xml version="1.0" encoding="UTF-8" standalone="no"?>
<svg
   width="544.16998"
   height="544.8642"
   version="1.1"
   id="svg1"
   sodipodi:docname="logo.svg"
   xml:space="preserve"
   inkscape:version="1.4.4 (unknown)"
   xmlns:inkscape="http://www.inkscape.org/namespaces/inkscape"
   xmlns:sodipodi="http://sodipodi.sourceforge.net/DTD/sodipodi-0.dtd"
   xmlns="http://www.w3.org/2000/svg"
   xmlns:svg="http://www.w3.org/2000/svg"
   xmlns:rdf="http://www.w3.org/1999/02/22-rdf-syntax-ns#"
   xmlns:cc="http://creativecommons.org/ns#"
   xmlns:dc="http://purl.org/dc/elements/1.1/"><defs
     id="defs1"><linearGradient
       x1="161.28315"
       y1="7.5663334"
       x2="145.29043"
       y2="30.648862"
       id="linearGradient-1"
       gradientTransform="scale(1.0852396,0.9214555)"
       gradientUnits="userSpaceOnUse"><stop
         stop-color="#D446FF"
         offset="0%"
         id="stop1" /><stop
         stop-color="#A0D8FF"
         offset="100%"
         id="stop2" /></linearGradient><linearGradient
       x1="157.61548"
       y1="21.212255"
       x2="163.49132"
       y2="42.908016"
       id="linearGradient-2"
       gradientTransform="scale(1.0714703,0.93329694)"
       gradientUnits="userSpaceOnUse"><stop
         stop-color="#3C3C3C"
         offset="0%"
         id="stop3" /><stop
         stop-color="#191919"
         offset="100%"
         id="stop4" /></linearGradient><linearGradient
       x1="79.548841"
       y1="-14.46623"
       x2="-11.576564"
       y2="53.028097"
       id="linearGradient-3"
       gradientTransform="scale(1.0090862,0.99099563)"
       gradientUnits="userSpaceOnUse"><stop
         stop-color="#D446FF"
         offset="0%"
         id="stop5" /><stop
         stop-color="#A0D8FF"
         offset="100%"
         id="stop6" /></linearGradient><linearGradient
       x1="20.77421"
       y1="34.174587"
       x2="40.200983"
       y2="23.636287"
       id="linearGradient-4"
       gradientTransform="scale(1.2049438,0.82991422)"
       gradientUnits="userSpaceOnUse"><stop
         stop-color="#FFFFFF"
         offset="0%"
         id="stop7" /><stop
         stop-color="#DADADA"
         offset="100%"
         id="stop8" /></linearGradient><linearGradient
       x1="25.714579"
       y1="50.333696"
       x2="11.381782"
       y2="32.590154"
       id="linearGradient-5"
       gradientTransform="scale(1.114092,0.89759195)"
       gradientUnits="userSpaceOnUse"><stop
         stop-color="#FFFFFF"
         offset="0%"
         id="stop9" /><stop
         stop-color="#DADADA"
         offset="100%"
         id="stop10" /></linearGradient><linearGradient
       x1="36.866967"
       y1="15.710848"
       x2="16.4951"
       y2="24.661939"
       id="linearGradient-6"
       gradientTransform="scale(1.3550117,0.73800101)"
       gradientUnits="userSpaceOnUse"><stop
         stop-color="#D0D0D0"
         offset="0%"
         id="stop11" /><stop
         stop-color="#FFFFFF"
         offset="100%"
         id="stop12" /></linearGradient><linearGradient
       x1="16.490288"
       y1="39.958931"
       x2="-6.139053"
       y2="67.829091"
       id="linearGradient-7"
       gradientTransform="scale(1.163757,0.85928589)"
       gradientUnits="userSpaceOnUse"><stop
         stop-color="#FFDC68"
         offset="0%"
         id="stop13" /><stop
         stop-color="#CE4300"
         offset="100%"
         id="stop14" /></linearGradient><linearGradient
       x1="10.298144"
       y1="22.935205"
       x2="5.0843673"
       y2="24.525209"
       id="linearGradient-8"
       gradientTransform="scale(2.1466972,0.46583188)"
       gradientUnits="userSpaceOnUse"><stop
         stop-color="#FFDC68"
         offset="0%"
         id="stop15" /><stop
         stop-color="#CE4300"
         offset="100%"
         id="stop16" /></linearGradient><linearGradient
       x1="13.558518"
       y1="38.663329"
       x2="-5.5350304"
       y2="67.982828"
       id="linearGradient-9"
       gradientTransform="scale(1.4995047,0.66688689)"
       gradientUnits="userSpaceOnUse"><stop
         stop-color="#FFDC68"
         offset="0%"
         id="stop17" /><stop
         stop-color="#CE4300"
         offset="100%"
         id="stop18" /></linearGradient></defs><sodipodi:namedview
     id="namedview1"
     pagecolor="#ffffff"
     bordercolor="#000000"
     borderopacity="0.25"
     inkscape:showpageshadow="2"
     inkscape:pageopacity="0.0"
     inkscape:pagecheckerboard="0"
     inkscape:deskcolor="#d1d1d1"
     inkscape:zoom="2.6703902"
     inkscape:cx="272.24486"
     inkscape:cy="272.4321"
     inkscape:window-width="3072"
     inkscape:window-height="1664"
     inkscape:window-x="0"
     inkscape:window-y="0"
     inkscape:window-maximized="1"
     inkscape:current-layer="svg1" /><metadata
     id="metadata7"><rdf:RDF><cc:Work
         rdf:about=""><dc:format>image/svg+xml</dc:format><dc:type
           rdf:resource="http://purl.org/dc/dcmitype/StillImage" /></cc:Work></rdf:RDF></metadata><g
     id="Group-4"
     transform="matrix(9.7875047,0,0,9.7875047,8.5528211,7.5385294)"
     style="fill:none;fill-rule:evenodd;stroke:none;stroke-width:1"><g
       id="Group-2"><ellipse
         id="ellipse4650-0-7-2-3-4-4"
         stroke="#a3a3a3"
         stroke-width="0.5"
         fill="url(#linearGradient-3)"
         fill-rule="nonzero"
         cx="26.813417"
         cy="26.350754"
         rx="26.805321"
         ry="26.320282"
         style="fill:url(#linearGradient-3)" /><path
         d="m 9.3721609,52.081911 c 0,0 8.3767721,-29.312221 40.9845281,-25.585009 0,0 -20.723434,-12.302021 -40.841614,4.282899 -5.9415311,13.762574 -0.1429141,21.30211 -0.1429141,21.30211 z"
         id="path4652-2-7-9-7-2-7"
         fill="url(#linearGradient-4)"
         style="fill:url(#linearGradient-4)" /><path
         d="m 11.866021,48.37431 c 0,0 8.740533,-21.073029 32.071755,-21.443365 -17.735023,4.320597 0.0291,19.637837 0.0291,19.637837 0,0 -14.028724,12.711119 -32.100852,1.805528 z"
         id="path4654-1-7-7-4-4-6"
         fill="url(#linearGradient-5)"
         style="fill:url(#linearGradient-5)" /><path
         d="m 6.9995964,32.220216 c 0,0 17.4578476,-19.203624 43.5282356,-5.935669 -0.465556,-3.607941 -3.549773,-7.681438 -9.078088,-8.845298 -1.222045,-0.581926 -10.183747,-14.4318233 -29.445565,-6.459393 5.925682,0.461387 8.468266,1.291426 8.612541,1.920349 C 10.369106,11.139037 7.3314861,25.722572 6.9995964,32.220216 Z"
         id="path4656-5-6-43-8-0-8"
         fill="url(#linearGradient-6)"
         style="fill:url(#linearGradient-6)" /><path
         d="m 32.03706,15.929921 c 0,0 4.466532,-1.599638 5.04822,3.157742 -4.404204,0.415513 -5.04822,-3.157742 -5.04822,-3.157742 z"
         id="path4658-6-9-5-0-2-9"
         fill="#202020" /><path
         d="m 9.2551104,52.177267 c 0,0 7.6361086,-24.909311 33.1663186,-25.873042 0,0 -20.716679,-3.779841 -35.348172,19.397705 -0.081122,3.279071 2.1818534,6.475337 2.1818534,6.475337 z"
         id="path4660-5-1-6-0-7-6"
         fill="url(#linearGradient-7)"
         style="fill:url(#linearGradient-7)" /><path
         d="m 12.025602,10.982272 c 0,0 6.367738,0.370345 8.641196,1.933987 0.949233,-0.195279 1.755212,-0.8452 1.892222,-1.730369 -0.814547,-0.337105 -8.270247,-0.94429 -10.533418,-0.203618 z"
         id="path4662-0-1-1-1-2-3"
         fill="url(#linearGradient-8)"
         style="fill:url(#linearGradient-8)" /><path
         d="m 7.0570156,32.253337 c 0,0 7.9722094,-9.57537 24.0666204,-10.719313 0,0 -21.9094907,0.990181 -23.7487686,7.176848 -0.5113449,1.487667 -0.3178518,3.542465 -0.3178518,3.542465 z"
         id="path4442-5-0-9-4-6-0-96"
         fill="url(#linearGradient-9)"
         style="fill:url(#linearGradient-9)" /></g></g><g
     id="g3699"
     transform="matrix(1.532388,0,0,1.3939671,-124.89313,-202.12528)"><path
       id="path3650"
       d="m 122.99448,175.30643 h 108.35396 l 6.60139,7.26665 v 22.30116 l -5.23559,7.01608 H 220.87725 V 322.64438 L 322.85744,211.89032 H 306.0125 l -5.9185,-7.01608 v -23.55403 l 5.46323,-5.51264 h 109.71976 l 5.46322,6.01379 v 22.05058 L 172.61878,484.01452 H 144.39212 L 136.22179,478.822 V 210.88803 h -13.68257 l -5.00795,-5.51264 v -23.55403 z"
       style="fill:none;stroke:#000000;stroke-width:18.9143;stroke-linecap:butt;stroke-linejoin:miter;stroke-miterlimit:4;stroke-dasharray:none;stroke-opacity:1" /><path
       id="path3640"
       d="m 232.50008,186.64163 6.11655,-3.54366 -6.27751,-6.91014 H 123.04607 l -5.55319,6.11281 v 23.1224 l 6.15679,6.77725 2.93756,-6.77725 -3.86308,-4.2524 v -16.30085 l 2.89731,-2.83492 H 229.9247 Z"
       style="fill:#fefefe;fill-opacity:1;stroke:#000000;stroke-width:0.945716px;stroke-linecap:butt;stroke-linejoin:miter;stroke-opacity:1" /><path
       transform="matrix(0.90138601,0,0,0.99222542,-437.42287,-185.30615)"
       d="m 828.9375,369.5 -4.28125,4.28125 V 389.5 l 3.75,3.75 h 19.8125 v 15.1875 L 717.15625,541.28125 V 393.4375 h 21.78125 l 4.46875,-4.46875 V 373.0625 l -4.125,-3.1875 h -114.625 l -3.75,3.75 v 16.25 l 3.8125,3.8125 h 19.9375 v 272.25 l 3.75,3.75 H 671.0625 L 945.71875,386.28125 v -12.5 L 941.4375,369.5 Z"
       id="path3632"
       style="fill:none;stroke:#000000;stroke-width:1px;stroke-linecap:butt;stroke-linejoin:miter;stroke-opacity:1" /><path
       id="path3646"
       d="m 143.48158,204.87424 v 270.62073 l 3.18688,4.0092 -2.49916,5.24301 -7.06148,-7.74876 v -265.1081 z"
       style="fill:#fefefe;fill-opacity:1;stroke:#000000;stroke-width:0.945716px;stroke-linecap:butt;stroke-linejoin:miter;stroke-opacity:1" /><path
       id="path3644"
       d="m 125.82451,204.87424 -1.82108,6.51494 h 13.2028 l 7.2843,-6.51494 z"
       style="fill:#808080;fill-opacity:1;stroke:#000000;stroke-width:0.945716px;stroke-linecap:butt;stroke-linejoin:miter;stroke-opacity:1" /><path
       id="path3638"
       d="m 307.18636,212.19144 2.89731,-6.55577 -4.18501,-4.2524 v -14.52901 l 4.82886,-5.31551 H 411.4896 l 3.86308,5.66987 5.4727,-4.2524 -5.63366,-6.20141 H 306.86443 l -5.39221,5.93564 v 23.29957 l 5.59342,5.80276 m -87.54309,111.87785 -10.52288,28.10566 118.7898,-131.1155 v -15.59211 z"
       style="fill:#fefefe;fill-opacity:1;stroke:#000000;stroke-width:0.945716px;stroke-linecap:butt;stroke-linejoin:miter;stroke-opacity:1" /><path
       id="path3642"
       d="m 232.25896,185.83056 5.2356,-3.75862 v 22.8023 l -6.03231,6.64023 h -11.72317 v 112.38277 l -10.69882,27.81381 V 204.87424 h 19.57656 l 3.64214,-3.25747 z"
       style="fill:#808080;fill-opacity:1;stroke:#000000;stroke-width:0.945716px;stroke-linecap:butt;stroke-linejoin:miter;stroke-opacity:1" /><path
       transform="matrix(0.90138601,0,0,0.99222542,-437.42287,-185.30615)"
       d="m 828.9375,369.5 -4.28125,4.28125 V 389.5 l 3.75,3.75 h 19.8125 v 15.1875 L 717.15625,541.28125 V 393.4375 h 21.78125 l 4.46875,-4.46875 V 373.0625 l -4.125,-3.1875 h -114.625 l -3.75,3.75 v 16.25 l 3.8125,3.8125 h 19.9375 v 272.25 l 3.75,3.75 H 671.0625 L 945.71875,386.28125 v -12.5 L 941.4375,369.5 Z"
       id="path3622"
       style="fill:#cccccc;fill-opacity:1;stroke:#000000;stroke-width:1px;stroke-linecap:butt;stroke-linejoin:miter;stroke-opacity:1" /><path
       id="path3636"
       d="m 415.35268,185.9329 5.49849,-3.49448 v 21.92152 L 171.46006,484.88124 H 144.9826 l 2.52966,-5.5331 h 20.28119 L 415.03076,198.33573 Z"
       style="fill:#808080;fill-opacity:1;stroke:#000000;stroke-width:0.945716px;stroke-linecap:butt;stroke-linejoin:miter;stroke-opacity:1" /><path
       id="path3652"
       d="m 327.29631,205.25009 -5.57703,6.38966 h -14.56861 l 3.41452,-6.38966 c 0.11382,0 16.73112,0 16.73112,0 z"
       style="fill:#808080;fill-opacity:1;stroke:#000000;stroke-width:0.945716px;stroke-linecap:butt;stroke-linejoin:miter;stroke-opacity:1" /><g
       transform="matrix(0.90138601,0,0,0.99222542,-92.530288,-192.23791)"
       id="g3673" /></g></svg>
